PathFileType	4	(X/Y/Z)	Kaydara	
DataRate	CameraRate	NumFrames	NumMarkers	Units	OrigDataRate	OrigDataStartFrame	OrigNumFrames	
240.00	240.00	4	72	mm	240.00	45	355	
Frame#	Time	Hips			RightUpLeg			RightLeg			RightFoot			RightFoot_End			LeftUpLeg			LeftLeg			LeftFoot			LeftFoot_End			Spine			Spine1			Spine2			Spine3			Neck			Head			Head_End			RightShoulder			RightArm			RightForeArm			RightHand			RightHandThumb1			RightHandThumb2			RightHandThumb3			RightHandThumb3_End			RightInHandIndex			RightHandIndex1			RightHandIndex2			RightHandIndex3			RightHandIndex3_End			RightInHandMiddle			RightHandMiddle1			RightHandMiddle2			RightHandMiddle3			RightHandMiddle3_End			RightInHandRing			RightHandRing1			RightHandRing2			RightHandRing3			RightHandRing3_End			RightInHandPinky			RightHandPinky1			RightHandPinky2			RightHandPinky3			RightHandPinky3_End			LeftShoulder			LeftArm			LeftForeArm			LeftHand			LeftHandThumb1			LeftHandThumb2			LeftHandThumb3			LeftHandThumb3_End			LeftInHandIndex			LeftHandIndex1			LeftHandIndex2			LeftHandIndex3			LeftHandIndex3_End			LeftInHandMiddle			LeftHandMiddle1			LeftHandMiddle2			LeftHandMiddle3			LeftHandMiddle3_End			LeftInHandRing			LeftHandRing1			LeftHandRing2			LeftHandRing3			LeftHandRing3_End			LeftInHandPinky			LeftHandPinky1			LeftHandPinky2			LeftHandPinky3			LeftHandPinky3_End			
		X1	Y1	Z1	X2	Y2	Z2	X3	Y3	Z3	X4	Y4	Z4	X5	Y5	Z5	X6	Y6	Z6	X7	Y7	Z7	X8	Y8	Z8	X9	Y9	Z9	X10	Y10	Z10	X11	Y11	Z11	X12	Y12	Z12	X13	Y13	Z13	X14	Y14	Z14	X15	Y15	Z15	X16	Y16	Z16	X17	Y17	Z17	X18	Y18	Z18	X19	Y19	Z19	X20	Y20	Z20	X21	Y21	Z21	X22	Y22	Z22	X23	Y23	Z23	X24	Y24	Z24	X25	Y25	Z25	X26	Y26	Z26	X27	Y27	Z27	X28	Y28	Z28	X29	Y29	Z29	X30	Y30	Z30	X31	Y31	Z31	X32	Y32	Z32	X33	Y33	Z33	X34	Y34	Z34	X35	Y35	Z35	X36	Y36	Z36	X37	Y37	Z37	X38	Y38	Z38	X39	Y39	Z39	X40	Y40	Z40	X41	Y41	Z41	X42	Y42	Z42	X43	Y43	Z43	X44	Y44	Z44	X45	Y45	Z45	X46	Y46	Z46	X47	Y47	Z47	X48	Y48	Z48	X49	Y49	Z49	X50	Y50	Z50	X51	Y51	Z51	X52	Y52	Z52	X53	Y53	Z53	X54	Y54	Z54	X55	Y55	Z55	X56	Y56	Z56	X57	Y57	Z57	X58	Y58	Z58	X59	Y59	Z59	X60	Y60	Z60	X61	Y61	Z61	X62	Y62	Z62	X63	Y63	Z63	X64	Y64	Z64	X65	Y65	Z65	X66	Y66	Z66	X67	Y67	Z67	X68	Y68	Z68	X69	Y69	Z69	X70	Y70	Z70	X71	Y71	Z71	X72	Y72	Z72	

45	0.183	7921.0129	906.651	56.2195	8004.546236699425	893.9158383612067	3.8874800658666686	7922.8103657672145	493.8829671279519	-90.56167763340827	7896.464924517737	107.23063405875271	-159.60904871614537	7821.399236417737	32.33633135407192	-0.554159496191378	7846.816889735605	891.090712872953	120.20357482949012	7780.559487815893	487.79299779019556	212.81835087319442	7742.421617063881	56.30161189351005	297.60868077075145	7607.820741848872	-16.59206879015283	182.59680976377516	7876.6902659398565	1032.8587540236488	5.3551632854000415	7826.945171562545	1098.0552462367655	-46.255682306212464	7770.6095802989275	1160.0483822821052	-102.56890767049575	7710.5741084047	1209.7531026825834	-160.61630108438507	7646.038107923774	1263.1764167529018	-221.9588124230337	7586.01078749056	1311.6705839775311	-276.9711143078847	7468.862514704037	1407.1183751859971	-328.9734712913658	7691.27256448152	1247.99462531961	-223.4384947021516	7752.304615282146	1238.0304348572267	-336.9910300886256	7765.236886697186	960.4676772782913	-327.93894274052064	7823.864483661977	718.1320284327793	-383.2229724653412	7826.742219494048	698.5841338265242	-394.3414158002736	7816.331305500778	685.4170540278167	-404.7634014414675	7809.7874487978015	674.868983127668	-410.74086756311675	7804.936339911055	664.896232790073	-414.62866550936826	7831.206691160769	690.3426043169761	-390.5862363524665	7837.820515752348	649.2838002028291	-397.89325648465683	7833.510492814714	628.7576130023962	-403.96836870980667	7824.850254551506	624.7222781476846	-408.7647674625033	7813.64801468278	627.2680479032618	-413.4224309856187	7832.473891672494	688.4048232826271	-386.8964723085967	7839.612790801486	647.3068589891876	-392.02744144896263	7835.04431685777	624.7962492117719	-398.1472792283959	7824.660640680709	619.8738284964796	-403.68955018109705	7812.434751819574	622.6331489892585	-408.6670623206418	7833.296824994691	687.9846493853274	-384.0862201593583	7840.691205067545	650.498605271222	-386.195441184178	7836.834585110022	630.8291967097506	-391.0010375190614	7826.885220942349	626.0550911364858	-396.06635012356116	7815.421317589422	628.6372159160555	-400.61347089660217	7833.294042286584	689.4688929181136	-380.7692416478732	7840.400117867791	655.6568711582896	-380.604321509418	7837.474365709177	639.9939752910221	-383.61890894129937	7830.29585940246	636.5541166822694	-386.91035082955807	7820.185938803975	638.8658584843726	-390.7063034629947	7642.928280628363	1243.4414700727662	-178.1783760655381	7574.881134422792	1178.5317697454473	-82.29503444410919	7693.8773984764775	992.435515996246	-209.05832197103362	7857.85972538661	808.1006307658229	-326.8197600966648	7843.322189099235	798.3299093173882	-347.37510326404754	7838.527788641855	778.5689857836477	-382.1569691401013	7835.663331106719	762.822479630272	-406.6158977108219	7833.6811642315015	747.9971872272807	-427.20885767049356	7842.594829289734	790.4503923777046	-349.11225800810115	7825.763561963961	755.5385418404646	-388.38206314804086	7819.894485436965	730.534987036423	-421.0395945927171	7820.3730061238175	718.9274658032128	-441.02808319795525	7823.5530847469045	711.9756752402608	-457.36028182902123	7844.748618842711	786.2329890939963	-348.64292104685944	7829.49522222261	749.9000289422294	-386.690124081598	7823.4369725914485	722.1720566629499	-422.14333767177834	7824.180376130987	707.9549033755449	-446.17106240953524	7827.740702039903	700.2447898464007	-463.9988354123085	7846.64018814944	784.1315602503628	-347.26447770707745	7834.437788200415	749.7085319247568	-380.0348384224591	7829.535822314487	725.1441918164586	-410.68984179473614	7830.453868997223	711.2200468584737	-433.735767394133	7833.896718615986	703.8708162318434	-450.43641641435823	7849.777348349241	782.8212680910833	-344.8906155370043	7840.314044206973	750.3868893236252	-373.34642705366025	7837.032780573328	730.2482466338683	-397.36721505702326	7838.013952379916	719.8653227933326	-413.9222741589657	7841.243056247753	713.2246921433109	-428.5697298798215
46	0.188	7921.0129	906.651	56.2195	8004.453234527299	893.8745360938473	3.857786257243598	7922.723006505405	493.82332576261945	-90.4945615544918	7896.614456627457	107.22101387523006	-159.63096891552684	7821.548325958449	32.31493792316333	-0.5821686022028487	7846.901803655283	891.1287568507346	120.23150272195274	7780.68279495229	487.829361291519	212.86099747926136	7742.501379916542	56.338635570954004	297.59753567915106	7607.92272163316	-16.580554383402298	182.58009334957052	7876.728694766959	1032.8747525820004	5.3643776459140975	7827.007317479535	1098.0995737076507	-46.23431416697112	7770.694726927263	1160.1234635254357	-102.53719321958276	7710.676832248794	1209.85549052498	-160.57949162542198	7646.1581550579285	1263.3060664831637	-221.91645421925548	7586.145649644694	1311.8237921626833	-276.9235327442803	7468.975222758111	1407.2413502754582	-328.92687232566016	7691.378271019925	1248.1104877270072	-223.39492867204928	7752.467902377829	1238.2493548295624	-336.95709498167724	7765.335229546462	960.7596539601765	-328.0742969571947	7823.829126185682	718.8139846560081	-383.91336905226626	7826.735135361731	699.3941997991103	-395.08194421036023	7816.321925338814	686.2898158332633	-405.5737613527884	7809.771139371158	675.7758565151591	-411.60611279012767	7804.90969393059	665.8233739042892	-415.5450169367751	7831.184829126368	691.1358069866856	-391.3549286261551	7837.791989996795	650.1872735954875	-398.79985618513535	7833.468058134341	629.7078241465898	-404.96483241944554	7824.798942567665	625.6843017412587	-409.797951899449	7813.589199723767	628.2282167668919	-414.47309344525036	7832.437323318007	689.1667880164783	-387.6770860080476	7839.561770844107	648.1594904144066	-392.94901595739634	7834.9761890635455	625.6953638958795	-399.168031291793	7824.580876392307	620.7850268718291	-404.75514091654816	7812.3463275853355	623.5412641908221	-409.7520379552943	7833.250094655056	688.721994713344	-384.8718674984738	7840.622871474551	651.2966074164945	-387.11216841793396	7836.749389294912	631.6629512686736	-392.00512746095643	7826.787764731449	626.8979721282774	-397.11417860993845	7815.315227874034	629.4759993788485	-401.67975734978313	7833.235336053383	690.1725876438262	-381.55566852583723	7840.314406546579	656.3963763917568	-381.5119365097317	7837.372201809312	640.7544131199381	-384.59734218912894	7830.183325725611	637.3174882544854	-387.9211038457099	7820.064935997803	639.6234576178916	-391.73364704876906	7643.051720654193	1243.5666937519031	-178.14118137144249	7575.004811879215	1178.6822294870913	-82.27896532662383	7693.840729854334	992.6552783007133	-209.15706858660872	7857.61131569381	808.5133805346022	-327.114931775114	7843.071749951398	798.8166808696317	-347.6988681236144	7838.264266494584	779.080771317954	-382.4732556002606	7835.384847756242	763.3480542651288	-406.9201478366746	7833.385203684893	748.5311513297498	-427.4972321151574	7842.322227261856	790.9360127998854	-349.41593586776116	7825.436641963388	756.1000942021001	-388.66575793734216	7819.535135284092	731.1222864390008	-421.2999416769342	7820.005422039662	719.5129655628525	-441.2758455294715	7823.186731177782	712.5476743321542	-457.5989299642792	7844.462251020862	786.7048040878474	-348.9282735607828	7829.148426835767	750.4384460205458	-386.9460762171385	7823.053155985339	722.7364671552641	-422.3714478522413	7823.785841782099	708.5161340430403	-446.38285468471867	7827.347133068037	700.7907579981243	-464.2001033984054	7846.345377334676	784.5919505262303	-347.53744055619563	7834.081190043708	750.219473168976	-380.27083578973316	7829.145383134471	725.6755329279738	-410.89920057797553	7830.052256281783	711.7471226066286	-433.928126913186	7833.495617716173	704.3829735718807	-450.6182836758485	7849.475196105295	783.2641916288421	-345.14950529868014	7839.950329942387	750.8663284579853	-373.56288839380323	7836.63978351331	730.7402790367714	-397.5588063817381	7837.611748765071	720.3524337970535	-414.0997542966078	7840.840697959562	713.6975460588745	-428.7369303942371
47	0.192	7921.0129	906.651	56.2195	8004.357592131513	893.8321569846415	3.8272993733927927	7922.633464133722	493.76232582549255	-90.42694697958598	7896.765623935461	107.21101693683042	-159.6540295718578	7821.6991543450895	32.292997449354175	-0.6113547142009885	7846.989277393603	891.1678684977553	120.26024958741928	7780.809078892996	487.86692094294136	212.905141743592	7742.582178433055	56.37691310351172	297.586153026362	7608.026297276902	-16.568377015498523	182.56297970056423	7876.767550536685	1032.8908287759048	5.373514576692418	7827.069760306007	1098.1441411474566	-46.21262771985775	7770.779978277693	1160.1989891470846	-102.50462632958863	7710.77938444098	1209.958580417502	-160.54110804860912	7646.27773112717	1263.4366740586247	-221.8717526415732	7586.279801098533	1311.9782158022465	-276.8728914057903	7469.087014798028	1407.3655502414642	-328.8764853602627	7691.482653286582	1248.2265226635877	-223.34923361787028	7752.62638551845	1238.466081953407	-336.91869212483425	7765.42852897594	961.0541453308906	-328.1998275912305	7823.785437602937	719.5037555744972	-384.58735943859097	7826.719764653051	700.2128985990361	-395.8058064957427	7816.304641733715	687.1713875957171	-406.366627474285	7809.747152899761	676.6916483688753	-412.4532290319615	7804.875525069588	666.7595112454185	-416.4426595345049	7831.1544913078615	691.937739662394	-392.1067524402189	7837.754827141289	651.1004945369438	-399.6885228004669	7833.417132703101	630.6680885820131	-405.9424494875668	7824.739418208786	626.6562809799954	-410.8117574682024	7813.522529202002	629.198066373841	-415.5039606144654	7832.392187162578	689.9373878417894	-388.4407001436624	7839.501975897407	649.0216981870852	-393.85248163323126	7834.899434680777	626.6043722264765	-400.1696635894368	7824.492815945831	621.7059932516148	-405.80096302695495	7812.24999497578	624.4588427948823	-410.8167860435093	7833.194732698916	689.4678863005684	-385.6404509733419	7840.545656636583	652.103934523591	-388.0107852290979	7836.655430395553	632.5062891309545	-392.9902132104507	7826.681858222817	627.750305556419	-398.14237031685303	7815.201049659802	630.3239442902811	-402.72597234184695	7833.167952346236	690.8846637498722	-382.3249791577399	7840.219750665283	657.1448899714483	-382.40144661265055	7837.261171626989	641.524034317143	-385.5569396824651	7830.0621460092525	638.0899323340307	-388.9125523626594	7819.935603097917	640.389862624591	-392.74129685777825	7643.1757954065215	1243.6935111182763	-178.1019728692057	7575.132820815432	1178.8379686746246	-82.26103676988154	7693.805898151338	992.8787565411461	-209.2486866232345	7857.3566629936295	808.9301536977702	-327.3963557040561	7842.8153551745345	799.3080928808071	-348.0079452330383	7837.994991373961	779.5976342093065	-382.77348222444857	7835.100828399301	763.8789718753078	-407.2073916841456	7833.083952884631	749.0706467885367	-427.7678190394179	7842.044009004393	791.4262076559011	-349.7049026566502	7825.105166579901	756.6668511214629	-388.93317149393033	7819.171748048668	731.7151441560887	-421.5427525726252	7819.633858277821	720.1041796279237	-441.5053168363709	7822.8162668141595	713.1254737138843	-457.81867940983017	7844.170425857004	787.1810624672916	-349.1989866326342	7828.797294830055	750.9818502283313	-387.1858962121534	7822.665585578309	723.3062313547914	-422.5820708273909	7823.387631165733	709.0828972855252	-446.5762559548689	7826.949748386485	701.3423482718194	-464.38231882959917	7846.045197301114	785.0566762555802	-347.79585603165003	7833.720312159235	750.7351456224867	-380.49103202998117	7828.7511880446855	726.2119040233296	-411.09159415023476	7829.6469708506775	712.2793898586077	-434.10265846042137	7833.090716973306	704.9004013939808	-450.7817052191383	7849.167722313849	783.7113021901628	-345.3939883031331	7839.5823330026615	751.3502287585251	-373.76388390386643	7836.242943158246	731.2369777716598	-397.73403169335387	7837.205772176336	720.8443124595517	-414.2602545858948	7840.434459630612	714.1752281069203	-428.8866127383587
48	0.196	7921.0129	906.651	56.2195	8004.25931064672	893.7887017855144	3.796020092463718	7922.541740781946	493.6999686470608	-90.35883712443763	7896.918420022712	107.20064323164189	-159.67823128577714	7821.851715422181	32.27051038580952	-0.6417180775648088	7847.079310170154	891.2080472504939	120.2898149119408	7780.93833704852	487.9056765555134	212.9507834961362	7742.664009507354	56.4164444018559	297.574533307603	7608.131465268845	-16.555536181253313	182.54546936541223	7876.8068316443105	1032.9069817367692	5.382573322488007	7827.132496757309	1098.18894625178	-46.190623726986196	7770.865329323093	1160.2749553439176	-102.47120739035108	7710.881758406384	1210.06236739075	-160.5011496825203	7646.3968279856945	1263.5682333510374	-221.8247058900544	7586.413232404234	1312.1338478473115	-276.8191874422273	7469.197882438307	1407.4909700647831	-328.82230597965645	7691.585702420188	1248.3427234633677	-223.30140811275737	7752.7800455884535	1238.6805988801557	-336.87581459484954	7765.5167717612585	961.3511392269545	-328.3155061141318	7823.733408496577	720.2013156593526	-385.2448646313378	7826.696096892688	701.040198071291	-396.51292004666533	7816.279445459873	688.0617333685524	-407.14191127783243	7809.715481221356	677.6163207113816	-413.28212307141723	7804.833826217404	667.7046056645875	-417.3214956907757	7831.11566763828	692.7483715740148	-392.8416227846618	7837.7090176499305	652.0234273427694	-400.55916016704646	7833.357708351298	631.6383682334006	-406.90111617030607	7824.671674503139	627.6381767518038	-411.8060771396889	7813.4479973724465	630.1775570570774	-416.51492370787076	7832.338473693174	690.7165938666457	-389.1872285587142	7839.433397265685	649.8934496376174	-394.7377408205266	7834.81404657718	627.5232391901253	-401.15207007891206	7824.396453689141	622.636691498696	-406.82690645128355	7812.145749697928	625.3858481189252	-411.86119457572045	7833.1307299822865	690.2222966999789	-386.39188389391984	7840.459552436909	652.9205569924244	-388.89119413633773	7836.5527017309205	633.359178930554	-393.95618987729506	7826.567496201927	628.6120591180429	-399.1508164250823	7815.078779028533	631.181017904392	-403.7520051964905	7833.091882500075	691.6050956555429	-383.07708662322597	7840.116142767075	657.9023854658946	-383.2727548284436	7837.141268964555	642.30281147856	-386.49759839109083	7829.932315178379	638.8714210470716	-389.88459043228266	7819.797936208138	641.1650453610399	-393.7291452668437	7643.300498559784	1243.8219173901214	-178.06074918424628	7575.265161740672	1178.9989877418552	-82.24124713943618	7693.7729121601515	993.1059444852665	-209.3331560296254	7857.095775279711	809.3509337620748	-327.6639841481875	7842.553013775829	799.804125724502	-348.3022837226847	7837.719974198332	780.1195544406817	-383.05759605800654	7834.811285822765	764.4152123136984	-407.47757527056945	7832.777426635196	749.6156534695027	-428.02056396632986	7841.760185664252	791.9209572532592	-349.9791087249684	7824.769153255514	757.238789787988	-389.1842528690562	7818.80434491463	732.3135367424825	-421.76797549406876	7819.258337071518	720.7010851276914	-441.71644460475	7822.44171389634	713.7090516438418	-458.0194769088615	7843.873155710743	787.6617451073726	-349.4550118142313	7828.441845361265	751.5302197058984	-387.40953500144104	7822.274284748133	723.8813267962428	-422.775156781569	7822.985768992194	709.6551713724987	-446.7512156039485	7826.548572745673	701.8995401927317	-464.5454303149651	7845.739661115745	785.525718778707	-348.03967656918155	7833.355174351715	751.2555285338811	-380.69537979864435	7828.35326066077	726.7532839165905	-411.26697468025463	7829.238037674454	712.8168281867956	-434.25931352144767	7832.682041428629	705.4230804747325	-450.926631843374	7848.854940586161	784.1625818622828	-345.6240180280638	7839.210073554196	751.8385708021882	-373.94936791115515	7835.842282901132	731.7383232223419	-397.8928451896337	7836.796047079614	721.3409397926501	-414.40372885217346	7840.024365838138	714.6577204091002	-429.0187302018737
